700.ufo
<glyph name="dollar" format="1">
  <advance width="1221"/>
  <unicode hex="0024"/>
  <outline>
    <contour>
      <point x="583" y="1779" type="line"/>
      <point x="565" y="1441" type="line"/>
      <point x="717" y="1441" type="line"/>
      <point x="717" y="1779" type="line"/>
    </contour>
    <contour>
      <point x="498" y="60" type="line"/>
      <point x="498" y="-278" type="line"/>
      <point x="633" y="-278" type="line"/>
      <point x="646" y="60" type="line"/>
    </contour>
    <component base="S" xOffset="11"/>
  </outline>
</glyph>
<glyph name="parenleft" format="1">
  <advance width="823"/>
  <unicode hex="0028"/>
  <outline>
    <contour>
      <point x="473" y="-265" type="curve"/>
      <point x="668" y="-265" type="line"/>
      <point x="668" y="-233" type="line"/>
      <point x="514" y="-16"/>
      <point x="407" y="266"/>
      <point x="407" y="664" type="curve"/>
      <point x="203" y="664" type="line"/>
      <point x="203" y="320"/>
      <point x="315" y="-40"/>
    </contour>
    <contour>
      <point x="203" y="664" type="curve"/>
      <point x="407" y="664" type="line"/>
      <point x="407" y="1062"/>
      <point x="514" y="1339"/>
      <point x="668" y="1556" type="curve"/>
      <point x="668" y="1593" type="line"/>
      <point x="473" y="1593" type="line"/>
      <point x="315" y="1368"/>
      <point x="203" y="1008"/>
    </contour>
  </outline>
</glyph>
<glyph name="parenright" format="1">
  <advance width="823"/>
  <unicode hex="0029"/>
  <outline>
    <contour>
      <point x="152" y="-265" type="line"/>
      <point x="347" y="-265" type="line"/>
      <point x="505" y="-40"/>
      <point x="617" y="320"/>
      <point x="617" y="664" type="curve"/>
      <point x="413" y="664" type="line"/>
      <point x="413" y="266"/>
      <point x="306" y="-16"/>
      <point x="152" y="-233" type="curve"/>
    </contour>
    <contour>
      <point x="413" y="664" type="curve"/>
      <point x="617" y="664" type="line"/>
      <point x="617" y="1008"/>
      <point x="505" y="1368"/>
      <point x="347" y="1593" type="curve"/>
      <point x="152" y="1593" type="line"/>
      <point x="152" y="1556" type="line"/>
      <point x="306" y="1339"/>
      <point x="413" y="1062"/>
    </contour>
  </outline>
</glyph>
<glyph name="asterisk" format="1">
  <advance width="994"/>
  <unicode hex="002A"/>
  <outline>
    <contour>
      <point x="324" y="535" type="line"/>
      <point x="497" y="871" type="line"/>
      <point x="680" y="534" type="line"/>
      <point x="706" y="551"/>
      <point x="833" y="625"/>
      <point x="859" y="642" type="curve"/>
      <point x="816" y="699"/>
      <point x="661" y="903"/>
      <point x="620" y="957" type="curve"/>
      <point x="967" y="1036" type="line"/>
      <point x="909" y="1238" type="line"/>
      <point x="570" y="1094" type="line"/>
      <point x="604" y="1490" type="line"/>
      <point x="396" y="1490" type="line"/>
      <point x="430" y="1094" type="line"/>
      <point x="93" y="1238" type="line"/>
      <point x="35" y="1036" type="line"/>
      <point x="378" y="957" type="line"/>
      <point x="142" y="642" type="line"/>
    </contour>
  </outline>
</glyph>
<glyph name="plus" format="1">
  <advance width="1164"/>
  <unicode hex="002B"/>
  <outline>
    <contour>
      <point x="493" y="1144" type="line"/>
      <point x="493" y="736" type="line"/>
      <point x="105" y="736" type="line"/>
      <point x="105" y="566" type="line"/>
      <point x="492" y="566" type="line"/>
      <point x="492" y="154" type="line"/>
      <point x="665" y="154" type="line"/>
      <point x="665" y="566" type="line"/>
      <point x="1049" y="566" type="line"/>
      <point x="1049" y="736" type="line"/>
      <point x="666" y="736" type="line"/>
      <point x="666" y="1144" type="line"/>
    </contour>
  </outline>
</glyph>
<glyph name="period" format="1">
  <advance width="681"/>
  <unicode hex="002E"/>
  <outline>
    <contour>
      <point x="334" y="-6" type="curve" smooth="yes"/>
      <point x="417" y="-6"/>
      <point x="466" y="51"/>
      <point x="466" y="144" type="curve" smooth="yes"/>
      <point x="466" y="238"/>
      <point x="417" y="296"/>
      <point x="334" y="296" type="curve" smooth="yes"/>
      <point x="250" y="296"/>
      <point x="201" y="238"/>
      <point x="201" y="144" type="curve" smooth="yes"/>
      <point x="201" y="50"/>
      <point x="251" y="-6"/>
    </contour>
  </outline>
</glyph>
<glyph name="zero" format="1">
  <advance width="1193"/>
  <unicode hex="0030"/>
  <outline>
    <contour>
      <point x="599" y="184" type="curve" smooth="yes"/>
      <point x="398" y="184"/>
      <point x="310" y="392"/>
      <point x="311" y="735" type="curve" smooth="yes"/>
      <point x="312" y="1048"/>
      <point x="399" y="1272"/>
      <point x="599" y="1272" type="curve" smooth="yes"/>
      <point x="800" y="1272"/>
      <point x="882" y="1058"/>
      <point x="882" y="733" type="curve" smooth="yes"/>
      <point x="882" y="391"/>
      <point x="800" y="184"/>
    </contour>
    <contour>
      <point x="599" y="-20" type="curve" smooth="yes"/>
      <point x="974" y="-20"/>
      <point x="1126" y="313"/>
      <point x="1126" y="726" type="curve" smooth="yes"/>
      <point x="1126" y="1137"/>
      <point x="966" y="1476"/>
      <point x="599" y="1476" type="curve" smooth="yes"/>
      <point x="234" y="1476"/>
      <point x="67" y="1139"/>
      <point x="67" y="726" type="curve" smooth="yes"/>
      <point x="67" y="313"/>
      <point x="224" y="-20"/>
    </contour>
  </outline>
</glyph>
<glyph name="eight" format="1">
  <advance width="1193"/>
  <unicode hex="0038"/>
  <outline>
    <contour>
      <point x="599" y="-18" type="curve" smooth="yes"/>
      <point x="863" y="-18"/>
      <point x="1089" y="115"/>
      <point x="1089" y="377" type="curve" smooth="yes"/>
      <point x="1089" y="559"/>
      <point x="984" y="706"/>
      <point x="830" y="771" type="curve"/>
      <point x="965" y="834"/>
      <point x="1061" y="941"/>
      <point x="1061" y="1108" type="curve" smooth="yes"/>
      <point x="1061" y="1346"/>
      <point x="857" y="1476"/>
      <point x="598" y="1476" type="curve" smooth="yes"/>
      <point x="340" y="1476"/>
      <point x="133" y="1346"/>
      <point x="133" y="1108" type="curve" smooth="yes"/>
      <point x="133" y="938"/>
      <point x="237" y="828"/>
      <point x="373" y="770" type="curve"/>
      <point x="211" y="702"/>
      <point x="104" y="564"/>
      <point x="104" y="377" type="curve" smooth="yes"/>
      <point x="104" y="115"/>
      <point x="335" y="-18"/>
    </contour>
    <contour>
      <point x="599" y="146" type="curve" smooth="yes"/>
      <point x="422" y="146"/>
      <point x="336" y="230"/>
      <point x="336" y="380" type="curve" smooth="yes"/>
      <point x="336" y="539"/>
      <point x="441" y="646"/>
      <point x="599" y="685" type="curve"/>
      <point x="757" y="646"/>
      <point x="858" y="536"/>
      <point x="858" y="381" type="curve" smooth="yes"/>
      <point x="858" y="227"/>
      <point x="780" y="146"/>
    </contour>
    <contour>
      <point x="599" y="828" type="curve"/>
      <point x="437" y="864"/>
      <point x="353" y="967"/>
      <point x="353" y="1111" type="curve" smooth="yes"/>
      <point x="353" y="1231"/>
      <point x="451" y="1306"/>
      <point x="599" y="1306" type="curve" smooth="yes"/>
      <point x="748" y="1306"/>
      <point x="841" y="1231"/>
      <point x="841" y="1111" type="curve" smooth="yes"/>
      <point x="841" y="967"/>
      <point x="762" y="864"/>
    </contour>
  </outline>
</glyph>
<glyph name="nine" format="1">
  <advance width="1192"/>
  <unicode hex="0039"/>
  <outline>
    <contour>
      <point x="289" y="0" type="line"/>
      <point x="545" y="0" type="line"/>
      <point x="545" y="0"/>
      <point x="900" y="474"/>
      <point x="916" y="495" type="curve" smooth="yes"/>
      <point x="1029" y="654"/>
      <point x="1122" y="792"/>
      <point x="1122" y="994" type="curve" smooth="yes"/>
      <point x="1122" y="1268"/>
      <point x="922" y="1476"/>
      <point x="613" y="1476" type="curve" smooth="yes"/>
      <point x="317" y="1476"/>
      <point x="94" y="1276"/>
      <point x="108" y="997" type="curve" smooth="yes"/>
      <point x="122" y="714"/>
      <point x="327" y="560"/>
      <point x="534" y="560" type="curve" smooth="yes"/>
      <point x="720" y="560"/>
      <point x="842" y="666"/>
      <point x="912" y="774" type="curve"/>
      <point x="899" y="780" type="line"/>
      <point x="899" y="780"/>
      <point x="667" y="518"/>
      <point x="626" y="464" type="curve" smooth="yes"/>
      <point x="289" y="27" type="line"/>
    </contour>
    <contour>
      <point x="609" y="721" type="curve" smooth="yes"/>
      <point x="425" y="721"/>
      <point x="339" y="838"/>
      <point x="339" y="1009" type="curve" smooth="yes"/>
      <point x="339" y="1173"/>
      <point x="441" y="1289"/>
      <point x="623" y="1289" type="curve" smooth="yes"/>
      <point x="802" y="1289"/>
      <point x="893" y="1176"/>
      <point x="893" y="1014" type="curve" smooth="yes"/>
      <point x="893" y="816"/>
      <point x="776" y="721"/>
    </contour>
  </outline>
</glyph>
<glyph name="less" format="1">
  <advance width="1107"/>
  <unicode hex="003C"/>
  <outline>
    <contour>
      <point x="1006" y="162" type="line"/>
      <point x="1006" y="162"/>
      <point x="1006" y="358"/>
      <point x="1005" y="359" type="curve" smooth="yes"/>
      <point x="303" y="686" type="line"/>
      <point x="1007" y="1041" type="line"/>
      <point x="1007" y="1231" type="line"/>
      <point x="67" y="738" type="line"/>
      <point x="67" y="623" type="line"/>
    </contour>
  </outline>
</glyph>
<glyph name="greater" format="1">
  <advance width="1107"/>
  <unicode hex="003E"/>
  <outline>
    <contour>
      <point x="87" y="1044" type="line"/>
      <point x="787" y="686" type="line"/>
      <point x="86" y="364" type="line"/>
      <point x="86" y="166" type="line"/>
      <point x="1027" y="623" type="line"/>
      <point x="1027" y="737" type="line"/>
      <point x="87" y="1235" type="line"/>
    </contour>
  </outline>
</glyph>
<glyph name="at" format="1">
  <advance width="1902"/>
  <unicode hex="0040"/>
  <outline>
    <contour>
      <point x="926" y="-151" type="curve" smooth="yes"/>
      <point x="1117" y="-151"/>
      <point x="1310" y="-106"/>
      <point x="1438" y="-18" type="curve"/>
      <point x="1395" y="100" type="line"/>
      <point x="1263" y="24"/>
      <point x="1093" y="-18"/>
      <point x="929" y="-18" type="curve" smooth="yes"/>
      <point x="521" y="-18"/>
      <point x="293" y="278"/>
      <point x="293" y="651" type="curve" smooth="yes"/>
      <point x="293" y="1039"/>
      <point x="551" y="1388"/>
      <point x="986" y="1388" type="curve" smooth="yes"/>
      <point x="1414" y="1388"/>
      <point x="1614" y="1105"/>
      <point x="1614" y="800" type="curve" smooth="yes"/>
      <point x="1614" y="526"/>
      <point x="1498" y="386"/>
      <point x="1381" y="386" type="curve" smooth="yes"/>
      <point x="1306" y="386"/>
      <point x="1256" y="446"/>
      <point x="1256" y="529" type="curve" smooth="yes"/>
      <point x="1256" y="654"/>
      <point x="1293" y="841"/>
      <point x="1321" y="1046" type="curve"/>
      <point x="1235" y="1090"/>
      <point x="1096" y="1118"/>
      <point x="1000" y="1118" type="curve" smooth="yes"/>
      <point x="716" y="1118"/>
      <point x="558" y="863"/>
      <point x="558" y="613" type="curve" smooth="yes"/>
      <point x="558" y="415"/>
      <point x="660" y="261"/>
      <point x="862" y="261" type="curve" smooth="yes"/>
      <point x="1041" y="261"/>
      <point x="1141" y="438"/>
      <point x="1174" y="565" type="curve"/>
      <point x="1131" y="565" type="line"/>
      <point x="1144" y="386"/>
      <point x="1224" y="265"/>
      <point x="1381" y="265" type="curve" smooth="yes"/>
      <point x="1552" y="265"/>
      <point x="1757" y="443"/>
      <point x="1757" y="792" type="curve" smooth="yes"/>
      <point x="1757" y="1240"/>
      <point x="1422" y="1522"/>
      <point x="993" y="1522" type="curve" smooth="yes"/>
      <point x="496" y="1522"/>
      <point x="133" y="1154"/>
      <point x="133" y="655" type="curve" smooth="yes"/>
      <point x="133" y="156"/>
      <point x="457" y="-151"/>
    </contour>
    <contour>
      <point x="879" y="380" type="curve" smooth="yes"/>
      <point x="771" y="380"/>
      <point x="715" y="469"/>
      <point x="715" y="610" type="curve" smooth="yes"/>
      <point x="715" y="812"/>
      <point x="829" y="1005"/>
      <point x="1016" y="1005" type="curve" smooth="yes"/>
      <point x="1051" y="1005"/>
      <point x="1107" y="996"/>
      <point x="1152" y="987" type="curve"/>
      <point x="1111" y="736" type="line" smooth="yes"/>
      <point x="1079" y="536"/>
      <point x="1031" y="380"/>
    </contour>
  </outline>
</glyph>
<glyph name="A" format="1">
  <advance width="1383"/>
  <unicode hex="0041"/>
  <outline>
    <contour>
      <point x="544" y="1456" type="line"/>
      <point x="38" y="0" type="line"/>
      <point x="277" y="0" type="line"/>
      <point x="436" y="479" type="line"/>
      <point x="351" y="413" type="line"/>
      <point x="1020" y="413" type="line"/>
      <point x="933" y="475" type="line"/>
      <point x="1106" y="0" type="line"/>
      <point x="1346" y="0" type="line"/>
      <point x="835" y="1456" type="line"/>
    </contour>
    <contour>
      <point x="667" y="1322" type="line"/>
      <point x="922" y="513" type="line"/>
      <point x="970" y="587" type="line"/>
      <point x="401" y="587" type="line"/>
      <point x="446" y="512" type="line"/>
      <point x="715" y="1322" type="line"/>
    </contour>
    <contour>
      <point x="691.5" y="0" type="move" name="bot"/>
    </contour>
    <contour>
      <point x="1211" y="0" type="move" name="ogonek"/>
    </contour>
    <contour>
      <point x="691.5" y="1456" type="move" name="top"/>
    </contour>
  </outline>
</glyph>
<glyph name="C" format="1">
  <advance width="1448"/>
  <unicode hex="0043"/>
  <outline>
    <contour>
      <point x="365" y="1480"/>
      <point x="114" y="1216"/>
      <point x="114" y="731" type="curve" smooth="yes"/>
      <point x="114" y="246"/>
      <point x="365" y="-18"/>
      <point x="785" y="-18" type="curve" smooth="yes"/>
      <point x="1112" y="-18"/>
      <point x="1290" y="188"/>
      <point x="1335" y="384" type="curve"/>
      <point x="1166" y="459" type="line"/>
      <point x="1142" y="459" type="line"/>
      <point x="1109" y="329"/>
      <point x="1003" y="178"/>
      <point x="787" y="180" type="curve" smooth="yes"/>
      <point x="513" y="183"/>
      <point x="368" y="343"/>
      <point x="368" y="731" type="curve" smooth="yes"/>
      <point x="368" y="1119"/>
      <point x="513" y="1279"/>
      <point x="787" y="1282" type="curve" smooth="yes"/>
      <point x="1003" y="1284"/>
      <point x="1109" y="1133"/>
      <point x="1142" y="1003" type="curve"/>
      <point x="1166" y="1003" type="line"/>
      <point x="1335" y="1078" type="line"/>
      <point x="1290" y="1274"/>
      <point x="1112" y="1480"/>
      <point x="785" y="1480" type="curve" smooth="yes"/>
    </contour>
    <contour>
      <point x="782" y="0" type="move" name="bot"/>
    </contour>
    <contour>
      <point x="783" y="1456" type="move" name="top"/>
    </contour>
  </outline>
</glyph>
<glyph name="E" format="1">
  <advance width="1278"/>
  <unicode hex="0045"/>
  <outline>
    <contour>
      <point x="159" y="1456" type="line"/>
      <point x="159" y="0" type="line"/>
      <point x="1132" y="0" type="line"/>
      <point x="1140" y="195" type="line"/>
      <point x="329" y="195" type="line"/>
      <point x="399" y="125" type="line"/>
      <point x="399" y="726" type="line"/>
      <point x="328" y="654" type="line"/>
      <point x="1070" y="654" type="line"/>
      <point x="1070" y="845" type="line"/>
      <point x="329" y="845" type="line"/>
      <point x="399" y="774" type="line"/>
      <point x="399" y="1336" type="line"/>
      <point x="329" y="1266" type="line"/>
      <point x="1110" y="1266" type="line"/>
      <point x="1123" y="1456" type="line"/>
    </contour>
    <contour>
      <point x="639" y="0" type="move" name="bot"/>
    </contour>
    <contour>
      <point x="882" y="0" type="move" name="ogonek"/>
    </contour>
    <contour>
      <point x="639" y="1456" type="move" name="top"/>
    </contour>
  </outline>
</glyph>
<glyph name="J" format="1">
  <advance width="880"/>
  <unicode hex="004A"/>
  <outline>
    <contour>
      <point x="421" y="1456" type="line"/>
      <point x="421" y="148" type="line" smooth="yes"/>
      <point x="421" y="-55"/>
      <point x="432" y="-150"/>
      <point x="254" y="-231" type="curve" smooth="yes"/>
      <point x="169" y="-270" type="line"/>
      <point x="251" y="-443" type="line"/>
      <point x="323" y="-409" type="line" smooth="yes"/>
      <point x="630" y="-264"/>
      <point x="661" y="-208"/>
      <point x="661" y="143" type="curve" smooth="yes"/>
      <point x="661" y="1456" type="line"/>
    </contour>
    <contour>
      <point x="440" y="0" type="move" name="bot"/>
    </contour>
    <contour>
      <point x="546" y="1456" type="move" name="top"/>
    </contour>
  </outline>
</glyph>
<glyph name="L" format="1">
  <advance width="1107"/>
  <unicode hex="004C"/>
  <outline>
    <contour>
      <point x="165" y="1456" type="line"/>
      <point x="165" y="0" type="line"/>
      <point x="1064" y="0" type="line"/>
      <point x="1076" y="184" type="line"/>
      <point x="318" y="184" type="line"/>
      <point x="405" y="93" type="line"/>
      <point x="405" y="1456" type="line"/>
    </contour>
    <contour>
      <point x="346" y="1082" type="move" name="caron.alt"/>
    </contour>
    <contour>
      <point x="294" y="1456" type="move" name="top"/>
    </contour>
    <contour>
      <point x="304" y="780" type="move" name="mid"/>
    </contour>
    <contour>
      <point x="553.5" y="0" type="move" name="bot"/>
    </contour>
  </outline>
</glyph>
<glyph name="M" format="1">
  <advance width="1817"/>
  <unicode hex="004D"/>
  <outline>
    <contour>
      <point x="152" y="0" type="line"/>
      <point x="374" y="0" type="line"/>
      <point x="374" y="515" type="line"/>
      <point x="386" y="1191" type="line"/>
      <point x="341" y="1191" type="line"/>
      <point x="811" y="206" type="line"/>
      <point x="986" y="206" type="line"/>
      <point x="1464" y="1191" type="line"/>
      <point x="1415" y="1191" type="line"/>
      <point x="1426" y="518" type="line"/>
      <point x="1426" y="0" type="line"/>
      <point x="1649" y="0" type="line"/>
      <point x="1649" y="549" type="line"/>
      <point x="1626" y="1456" type="line"/>
      <point x="1363" y="1456" type="line"/>
      <point x="858" y="400" type="line"/>
      <point x="945" y="400" type="line"/>
      <point x="445" y="1456" type="line"/>
      <point x="175" y="1456" type="line"/>
      <point x="152" y="545" type="line"/>
    </contour>
    <contour>
      <point x="908.5" y="0" type="move" name="bot"/>
    </contour>
    <contour>
      <point x="908.5" y="1456" type="move" name="top"/>
    </contour>
  </outline>
</glyph>
<glyph name="N" format="1">
  <advance width="1476"/>
  <unicode hex="004E"/>
  <outline>
    <contour>
      <point x="1079" y="1456" type="line"/>
      <point x="1079" y="788" type="line"/>
      <point x="1092" y="235" type="line"/>
      <point x="1142" y="236" type="line"/>
      <point x="433" y="1456" type="line"/>
      <point x="171" y="1456" type="line"/>
      <point x="171" y="0" type="line"/>
      <point x="399" y="0" type="line"/>
      <point x="399" y="560" type="line"/>
      <point x="381" y="1213" type="line"/>
      <point x="327" y="1206" type="line"/>
      <point x="1035" y="0" type="line"/>
      <point x="1307" y="0" type="line"/>
      <point x="1307" y="1456" type="line"/>
    </contour>
    <contour>
      <point x="738" y="0" type="move" name="bot"/>
    </contour>
    <contour>
      <point x="738" y="1456" type="move" name="top"/>
    </contour>
  </outline>
</glyph>
<glyph name="P" format="1">
  <advance width="1334"/>
  <unicode hex="0050"/>
  <outline>
    <contour>
      <point x="165" y="1438" type="curve"/>
      <point x="165" y="0" type="line"/>
      <point x="405" y="0" type="line"/>
      <point x="405" y="656" type="line"/>
      <point x="338" y="583" type="line"/>
      <point x="1131" y="493"/>
      <point x="1233" y="752"/>
      <point x="1233" y="1039" type="curve" smooth="yes"/>
      <point x="1233" y="1399"/>
      <point x="972" y="1546"/>
    </contour>
    <contour>
      <point x="345" y="1260" type="line"/>
      <point x="937" y="1331"/>
      <point x="989" y="1210"/>
      <point x="995" y="1033" type="curve" smooth="yes"/>
      <point x="1001" y="844"/>
      <point x="929" y="695"/>
      <point x="340" y="770" type="curve"/>
      <point x="405" y="704" type="line"/>
      <point x="405" y="1322" type="line"/>
    </contour>
    <contour>
      <point x="667" y="0" type="move" name="bot"/>
    </contour>
    <contour>
      <point x="667" y="1456" type="move" name="top"/>
    </contour>
  </outline>
</glyph>
<glyph name="R" format="1">
  <advance width="1363"/>
  <unicode hex="0052"/>
  <outline>
    <contour>
      <point x="159" y="0" type="line"/>
      <point x="399" y="0" type="line"/>
      <point x="399" y="694" type="line"/>
      <point x="334" y="637" type="line"/>
      <point x="809" y="637" type="line"/>
      <point x="691" y="703" type="line"/>
      <point x="1009" y="0" type="line"/>
      <point x="1270" y="0" type="line"/>
      <point x="1270" y="16" type="line"/>
      <point x="913" y="766" type="line"/>
      <point x="905" y="662" type="line"/>
      <point x="1077" y="713"/>
      <point x="1222" y="797"/>
      <point x="1222" y="1048" type="curve" smooth="yes"/>
      <point x="1222" y="1398"/>
      <point x="969" y="1546"/>
      <point x="159" y="1438" type="curve"/>
    </contour>
    <contour>
      <point x="399" y="747" type="line"/>
      <point x="399" y="1327" type="line"/>
      <point x="315" y="1258" type="line"/>
      <point x="868" y="1325"/>
      <point x="976" y="1244"/>
      <point x="976" y="1044" type="curve" smooth="yes"/>
      <point x="976" y="880"/>
      <point x="894" y="806"/>
      <point x="671" y="807" type="curve" smooth="yes"/>
      <point x="339" y="807" type="line"/>
    </contour>
    <contour>
      <point x="681.5" y="0" type="move" name="bot"/>
    </contour>
    <contour>
      <point x="681.5" y="1456" type="move" name="top"/>
    </contour>
  </outline>
</glyph>
<glyph name="U" format="1">
  <advance width="1420"/>
  <unicode hex="0055"/>
  <outline>
    <contour>
      <point x="1029" y="1456" type="line"/>
      <point x="1029" y="551" type="line" smooth="yes"/>
      <point x="1029" y="309"/>
      <point x="928" y="186"/>
      <point x="702" y="186" type="curve" smooth="yes"/>
      <point x="475" y="186"/>
      <point x="379" y="308"/>
      <point x="379" y="550" type="curve" smooth="yes"/>
      <point x="379" y="1456" type="line"/>
      <point x="139" y="1456" type="line"/>
      <point x="139" y="537" type="line" smooth="yes"/>
      <point x="139" y="195"/>
      <point x="320" y="-18"/>
      <point x="702" y="-18" type="curve" smooth="yes"/>
      <point x="1082" y="-18"/>
      <point x="1269" y="199"/>
      <point x="1269" y="535" type="curve" smooth="yes"/>
      <point x="1269" y="1456" type="line"/>
    </contour>
    <contour>
      <point x="710" y="0" type="move" name="bot"/>
    </contour>
    <contour>
      <point x="740" y="0" type="move" name="ogonek"/>
    </contour>
    <contour>
      <point x="710" y="1456" type="move" name="top"/>
    </contour>
  </outline>
</glyph>
<glyph name="Y" format="1">
  <advance width="1164"/>
  <unicode hex="0059"/>
  <outline>
    <contour>
      <point x="944" y="1456" type="line"/>
      <point x="544" y="696" type="line"/>
      <point x="614" y="696" type="line"/>
      <point x="209" y="1456" type="line"/>
      <point x="-38" y="1456" type="line"/>
      <point x="515" y="438" type="line"/>
      <point x="460" y="647" type="line"/>
      <point x="460" y="0" type="line"/>
      <point x="700" y="0" type="line"/>
      <point x="700" y="651" type="line"/>
      <point x="652" y="451" type="line"/>
      <point x="1197" y="1456" type="line"/>
    </contour>
    <contour>
      <point x="582" y="0" type="move" name="bot"/>
    </contour>
    <contour>
      <point x="582" y="1456" type="move" name="top"/>
    </contour>
  </outline>
</glyph>
<glyph name="asciicircum" format="1">
  <advance width="1136"/>
  <unicode hex="005E"/>
  <outline>
    <contour>
      <point x="497" y="1480" type="line"/>
      <point x="54" y="545" type="line"/>
      <point x="237" y="545" type="line"/>
      <point x="557" y="1240" type="line"/>
      <point x="899" y="545" type="line"/>
      <point x="1083" y="545" type="line"/>
      <point x="614" y="1480" type="line"/>
    </contour>
  </outline>
</glyph>
<glyph name="grave" format="1">
  <advance width="937"/>
  <unicode hex="0060"/>
  <outline>
    <contour>
      <point x="445" y="1216" type="line"/>
      <point x="583" y="1216" type="line"/>
      <point x="405" y="1627" type="line"/>
      <point x="136" y="1627" type="line"/>
    </contour>
    <contour>
      <point x="530" y="1082" type="move" name="_top"/>
    </contour>
  </outline>
</glyph>
<glyph name="f" format="1">
  <advance width="795"/>
  <unicode hex="0066"/>
  <outline>
    <contour>
      <point x="372" y="1516"/>
      <point x="236" y="1454"/>
      <point x="236" y="1160" type="curve" smooth="yes"/>
      <point x="236" y="1034" type="line"/>
      <point x="281" y="1085" type="line"/>
      <point x="72" y="1063" type="line"/>
      <point x="67" y="933" type="line"/>
      <point x="275" y="933" type="line"/>
      <point x="236" y="984" type="line"/>
      <point x="236" y="0" type="line"/>
      <point x="460" y="0" type="line"/>
      <point x="460" y="980" type="line"/>
      <point x="418" y="933" type="line"/>
      <point x="729" y="933" type="line"/>
      <point x="729" y="1082" type="line"/>
      <point x="411" y="1082" type="line"/>
      <point x="460" y="1035" type="line"/>
      <point x="460" y="1160" type="line" smooth="yes"/>
      <point x="460" y="1313"/>
      <point x="493" y="1344"/>
      <point x="584" y="1348" type="curve" smooth="yes"/>
      <point x="659" y="1351"/>
      <point x="743" y="1340"/>
      <point x="743" y="1340" type="curve"/>
      <point x="759" y="1496" type="line"/>
      <point x="759" y="1496"/>
      <point x="682" y="1516"/>
      <point x="568" y="1516" type="curve" smooth="yes"/>
    </contour>
    <contour>
      <point x="351" y="0" type="move" name="bot"/>
    </contour>
    <contour>
      <point x="419" y="1456" type="move" name="top"/>
    </contour>
  </outline>
</glyph>
<glyph name="h" format="1">
  <advance width="1164"/>
  <unicode hex="0068"/>
  <outline>
    <contour>
      <point x="131" y="1540" type="line"/>
      <point x="131" y="0" type="line"/>
      <point x="355" y="0" type="line"/>
      <point x="355" y="551" type="line" smooth="yes"/>
      <point x="355" y="721"/>
      <point x="425" y="927"/>
      <point x="624" y="927" type="curve" smooth="yes"/>
      <point x="761" y="927"/>
      <point x="817" y="838"/>
      <point x="817" y="654" type="curve" smooth="yes"/>
      <point x="817" y="0" type="line"/>
      <point x="1041" y="0" type="line"/>
      <point x="1041" y="671" type="line" smooth="yes"/>
      <point x="1041" y="959"/>
      <point x="902" y="1109"/>
      <point x="667" y="1101" type="curve" smooth="yes"/>
      <point x="497" y="1095"/>
      <point x="362" y="985"/>
      <point x="310" y="786" type="curve"/>
      <point x="346" y="786" type="line"/>
      <point x="355" y="1158" type="line"/>
      <point x="355" y="1560" type="line"/>
    </contour>
    <contour>
      <point x="591" y="-18" type="move" name="bot"/>
    </contour>
    <contour>
      <point x="317" y="1266" type="move" name="mid"/>
    </contour>
    <contour>
      <point x="592" y="1456" type="move" name="top"/>
    </contour>
  </outline>
</glyph>
<glyph name="i" format="1">
  <advance width="596"/>
  <unicode hex="0069"/>
  <outline>
    <component base="dotlessi"/>
    <component base="dotaccent" xOffset="-14"/>
    <contour>
      <point x="306" y="0" type="move" name="ogonek"/>
    </contour>
  </outline>
</glyph>
<glyph name="l" format="1">
  <advance width="681"/>
  <unicode hex="006C"/>
  <outline>
    <contour>
      <point x="175" y="1540" type="line"/>
      <point x="175" y="334" type="line" smooth="yes"/>
      <point x="175" y="57"/>
      <point x="284" y="-6"/>
      <point x="546" y="-6" type="curve" smooth="yes"/>
      <point x="608" y="-6" type="line"/>
      <point x="621" y="163" type="line"/>
      <point x="544" y="171" type="line" smooth="yes"/>
      <point x="433" y="183"/>
      <point x="397" y="212"/>
      <point x="397" y="316" type="curve" smooth="yes"/>
      <point x="397" y="1560" type="line"/>
    </contour>
    <contour>
      <point x="327" y="1456" type="move" name="caron.alt"/>
    </contour>
    <contour>
      <point x="318" y="928" type="move" name="mid"/>
    </contour>
    <contour>
      <point x="286" y="1456" type="move" name="top"/>
    </contour>
    <contour>
      <point x="375" y="0" type="move" name="bot"/>
    </contour>
  </outline>
</glyph>
<glyph name="n" format="1">
  <advance width="1164"/>
  <unicode hex="006E"/>
  <outline>
    <contour>
      <point x="454" y="1101"/>
      <point x="348" y="955"/>
      <point x="321" y="759" type="curve"/>
      <point x="354" y="759" type="line"/>
      <point x="322" y="1082" type="line"/>
      <point x="137" y="1082" type="line"/>
      <point x="137" y="0" type="line"/>
      <point x="361" y="0" type="line"/>
      <point x="361" y="572" type="line" smooth="yes"/>
      <point x="361" y="784"/>
      <point x="444" y="927"/>
      <point x="626" y="927" type="curve" smooth="yes"/>
      <point x="773" y="927"/>
      <point x="822" y="826"/>
      <point x="822" y="643" type="curve" smooth="yes"/>
      <point x="822" y="0" type="line"/>
      <point x="1046" y="0" type="line"/>
      <point x="1046" y="661" type="line" smooth="yes"/>
      <point x="1046" y="943"/>
      <point x="909" y="1101"/>
      <point x="682" y="1101" type="curve" smooth="yes"/>
    </contour>
    <contour>
      <point x="582" y="0" type="move" name="bot"/>
    </contour>
    <contour>
      <point x="582" y="1082" type="move" name="top"/>
    </contour>
    <contour>
      <point x="232" y="1082" type="move" name="caron.alt"/>
    </contour>
  </outline>
</glyph>
<glyph name="p" format="1">
  <advance width="1192"/>
  <unicode hex="0070"/>
  <outline>
    <contour>
      <point x="131" y="-468" type="line"/>
      <point x="356" y="-468" type="line"/>
      <point x="356" y="-54.3818" type="line"/>
      <point x="356" y="205" type="line"/>
      <point x="300" y="190" type="line"/>
      <point x="335" y="85"/>
      <point x="451" y="-18"/>
      <point x="654" y="-18" type="curve" smooth="yes"/>
      <point x="931" y="-18"/>
      <point x="1089" y="209"/>
      <point x="1089" y="546" type="curve" smooth="yes"/>
      <point x="1089" y="873"/>
      <point x="947" y="1101"/>
      <point x="665" y="1101" type="curve" smooth="yes"/>
      <point x="489" y="1101"/>
      <point x="352" y="985"/>
      <point x="317" y="770" type="curve"/>
      <point x="353" y="776" type="line"/>
      <point x="353" y="776"/>
      <point x="316" y="1082"/>
      <point x="316" y="1082" type="curve"/>
      <point x="131" y="1082" type="line"/>
    </contour>
    <contour>
      <point x="621" y="156" type="curve" smooth="yes"/>
      <point x="466" y="156"/>
      <point x="392" y="224"/>
      <point x="348" y="280" type="curve"/>
      <point x="348" y="562" type="line" smooth="yes"/>
      <point x="348" y="811"/>
      <point x="466" y="927"/>
      <point x="638" y="927" type="curve" smooth="yes"/>
      <point x="804" y="927"/>
      <point x="863" y="799"/>
      <point x="863" y="545" type="curve" smooth="yes"/>
      <point x="863" y="289"/>
      <point x="786" y="156"/>
    </contour>
    <contour>
      <point x="596" y="0" type="move" name="bot"/>
    </contour>
    <contour>
      <point x="596" y="1082" type="move" name="top"/>
    </contour>
  </outline>
</glyph>
<glyph name="q" format="1">
  <advance width="1192"/>
  <unicode hex="0071"/>
  <outline>
    <contour>
      <point x="819" y="-468" type="line" smooth="yes"/>
      <point x="1043" y="-468" type="line"/>
      <point x="1043" y="1082" type="line"/>
      <point x="838" y="1082" type="line"/>
      <point x="824" y="887" type="line"/>
      <point x="824" y="887"/>
      <point x="862" y="889"/>
      <point x="862" y="889" type="curve"/>
      <point x="862" y="944"/>
      <point x="802" y="1092"/>
      <point x="575" y="1101" type="curve" smooth="yes"/>
      <point x="309" y="1111"/>
      <point x="93" y="932"/>
      <point x="93" y="554" type="curve" smooth="yes"/>
      <point x="93" y="149"/>
      <point x="308" y="-35"/>
      <point x="585" y="-18" type="curve" smooth="yes"/>
      <point x="830" y="-3"/>
      <point x="888" y="175"/>
      <point x="890" y="243" type="curve"/>
      <point x="819" y="243" type="line"/>
      <point x="819" y="-39.2103" type="line"/>
    </contour>
    <contour>
      <point x="581" y="156" type="curve" smooth="yes"/>
      <point x="411" y="155"/>
      <point x="319" y="293"/>
      <point x="319" y="554" type="curve" smooth="yes"/>
      <point x="319" y="825"/>
      <point x="429" y="927"/>
      <point x="583" y="927" type="curve" smooth="yes"/>
      <point x="697" y="927"/>
      <point x="783" y="876"/>
      <point x="826" y="807" type="curve"/>
      <point x="826" y="280" type="line"/>
      <point x="800" y="241"/>
      <point x="744" y="157"/>
    </contour>
  </outline>
</glyph>
<glyph name="t" format="1">
  <advance width="823"/>
  <unicode hex="0074"/>
  <outline>
    <contour>
      <point x="613" y="-6" type="curve" smooth="yes"/>
      <point x="741" y="-6" type="line"/>
      <point x="750" y="161" type="line"/>
      <point x="684" y="165" type="line" smooth="yes"/>
      <point x="480" y="177"/>
      <point x="462" y="191"/>
      <point x="462" y="369" type="curve" smooth="yes"/>
      <point x="462" y="981" type="line"/>
      <point x="423" y="932" type="line"/>
      <point x="764" y="932" type="line"/>
      <point x="764" y="1082" type="line"/>
      <point x="423" y="1082" type="line"/>
      <point x="462" y="1030" type="line"/>
      <point x="462" y="1397" type="line"/>
      <point x="271" y="1382" type="line"/>
      <point x="247" y="1038" type="line"/>
      <point x="303" y="1084" type="line"/>
      <point x="80" y="1070" type="line"/>
      <point x="74" y="932" type="line"/>
      <point x="277" y="932" type="line"/>
      <point x="238" y="982" type="line"/>
      <point x="238" y="375" type="line" smooth="yes"/>
      <point x="238" y="103"/>
      <point x="286" y="-6"/>
    </contour>
    <contour>
      <point x="363" y="1285" type="move" name="caron.alt"/>
    </contour>
    <contour>
      <point x="407" y="656" type="move" name="mid"/>
    </contour>
    <contour>
      <point x="384" y="1352" type="move" name="top"/>
    </contour>
    <contour>
      <point x="500" y="0" type="move" name="bot"/>
    </contour>
  </outline>
</glyph>
<glyph name="u" format="1">
  <advance width="1172"/>
  <unicode hex="0075"/>
  <outline>
    <contour>
      <point x="507" y="-18" type="curve" smooth="yes"/>
      <point x="697" y="-18"/>
      <point x="815" y="91"/>
      <point x="860" y="189" type="curve"/>
      <point x="831" y="189" type="line"/>
      <point x="873" y="0" type="line"/>
      <point x="1035" y="0" type="line"/>
      <point x="1035" y="1082" type="line"/>
      <point x="811" y="1082" type="line"/>
      <point x="811" y="242" type="line"/>
      <point x="839" y="310" type="line"/>
      <point x="820" y="285"/>
      <point x="721" y="156"/>
      <point x="561" y="156" type="curve" smooth="yes"/>
      <point x="407" y="156"/>
      <point x="348" y="250"/>
      <point x="348" y="418" type="curve" smooth="yes"/>
      <point x="348" y="1082" type="line"/>
      <point x="124" y="1082" type="line"/>
      <point x="124" y="409" type="line" smooth="yes"/>
      <point x="124" y="122"/>
      <point x="266" y="-18"/>
    </contour>
    <contour>
      <point x="586" y="0" type="move" name="bot"/>
    </contour>
    <contour>
      <point x="586" y="1082" type="move" name="top"/>
    </contour>
    <contour>
      <point x="948" y="0" type="move" name="ogonek"/>
    </contour>
  </outline>
</glyph>
<glyph name="w" format="1">
  <advance width="1476"/>
  <unicode hex="0077"/>
  <outline>
    <contour>
      <point x="1271" y="1082" type="line"/>
      <point x="1067" y="195" type="line"/>
      <point x="1103" y="195" type="line"/>
      <point x="855" y="1082" type="line"/>
      <point x="634" y="1082" type="line"/>
      <point x="377" y="195" type="line"/>
      <point x="412" y="195" type="line"/>
      <point x="215" y="1082" type="line"/>
      <point x="10" y="1082" type="line"/>
      <point x="286" y="0" type="line"/>
      <point x="488" y="0" type="line"/>
      <point x="763" y="912" type="line"/>
      <point x="720" y="912" type="line"/>
      <point x="977" y="0" type="line"/>
      <point x="1177" y="0" type="line"/>
      <point x="1461" y="1082" type="line"/>
    </contour>
    <contour>
      <point x="738" y="0" type="move" name="bot"/>
    </contour>
    <contour>
      <point x="738" y="1082" type="move" name="top"/>
    </contour>
  </outline>
</glyph>
<glyph name="x" format="1">
  <advance width="1050"/>
  <unicode hex="0078"/>
  <outline>
    <contour>
      <point x="766" y="1082" type="line"/>
      <point x="526" y="663" type="line"/>
      <point x="421" y="592" type="line"/>
      <point x="42" y="0" type="line"/>
      <point x="278" y="0" type="line"/>
      <point x="534" y="434" type="line"/>
      <point x="637" y="502" type="line"/>
      <point x="1004" y="1082" type="line"/>
    </contour>
    <contour>
      <point x="62" y="1082" type="line"/>
      <point x="766" y="0" type="line"/>
      <point x="1015" y="0" type="line"/>
      <point x="309" y="1082" type="line"/>
    </contour>
  </outline>
</glyph>
<glyph name="y" format="1">
  <advance width="1136"/>
  <unicode hex="0079"/>
  <outline>
    <contour>
      <point x="1088" y="1082" type="line"/>
      <point x="868" y="1082" type="line"/>
      <point x="547" y="257" type="line"/>
      <point x="486" y="148" type="line"/>
      <point x="275" y="-402" type="line"/>
      <point x="477" y="-453" type="line"/>
    </contour>
    <contour>
      <point x="674" y="91" type="line"/>
      <point x="263" y="1082" type="line"/>
      <point x="29" y="1082" type="line"/>
      <point x="469" y="61" type="line"/>
    </contour>
    <contour>
      <point x="568" y="0" type="move" name="bot"/>
    </contour>
    <contour>
      <point x="568" y="1082" type="move" name="top"/>
    </contour>
  </outline>
</glyph>
<glyph name="z" format="1">
  <advance width="994"/>
  <unicode hex="007A"/>
  <outline>
    <contour>
      <point x="121" y="1082" type="line"/>
      <point x="121" y="919" type="line"/>
      <point x="699" y="919" type="line"/>
      <point x="674" y="981" type="line"/>
      <point x="99" y="143" type="line"/>
      <point x="99" y="0" type="line"/>
      <point x="913" y="0" type="line"/>
      <point x="913" y="170" type="line"/>
      <point x="294" y="170" type="line"/>
      <point x="310" y="100" type="line"/>
      <point x="876" y="925" type="line"/>
      <point x="876" y="1082" type="line"/>
    </contour>
    <contour>
      <point x="497" y="0" type="move" name="bot"/>
    </contour>
    <contour>
      <point x="497" y="1082" type="move" name="top"/>
    </contour>
  </outline>
</glyph>
<glyph name="bar" format="1">
  <advance width="711"/>
  <unicode hex="007C"/>
  <outline>
    <contour>
      <point x="267" y="1520" type="line"/>
      <point x="267" y="-317" type="line"/>
      <point x="444" y="-317" type="line"/>
      <point x="444" y="1520" type="line"/>
    </contour>
  </outline>
</glyph>
<glyph name="braceright" format="1">
  <advance width="908"/>
  <unicode hex="007D"/>
  <outline>
    <contour>
      <point x="114" y="-269" type="line"/>
      <point x="366" y="-269"/>
      <point x="493" y="-188"/>
      <point x="493" y="31" type="curve" smooth="yes"/>
      <point x="493" y="293" type="line" smooth="yes"/>
      <point x="493" y="456"/>
      <point x="527" y="537"/>
      <point x="703" y="537" type="curve"/>
      <point x="703" y="726" type="line"/>
      <point x="521" y="728"/>
      <point x="493" y="805"/>
      <point x="493" y="967" type="curve" smooth="yes"/>
      <point x="493" y="1212" type="line" smooth="yes"/>
      <point x="493" y="1449"/>
      <point x="373" y="1538"/>
      <point x="114" y="1538" type="curve"/>
      <point x="114" y="1359" type="line"/>
      <point x="255" y="1357"/>
      <point x="284" y="1309"/>
      <point x="284" y="1164" type="curve" smooth="yes"/>
      <point x="284" y="899" type="line"/>
      <point x="285" y="773"/>
      <point x="339" y="676"/>
      <point x="465" y="632" type="curve"/>
      <point x="337" y="580"/>
      <point x="284" y="499"/>
      <point x="284" y="368" type="curve" smooth="yes"/>
      <point x="284" y="101" type="line" smooth="yes"/>
      <point x="284" y="-47"/>
      <point x="253" y="-90"/>
      <point x="114" y="-92" type="curve"/>
    </contour>
  </outline>
</glyph>
<glyph name="cent" format="1">
  <advance width="1164"/>
  <unicode hex="00A2"/>
  <outline>
    <contour>
      <point x="587" y="1376" type="line"/>
      <point x="569" y="1037" type="line"/>
      <point x="717" y="1037" type="line"/>
      <point x="717" y="1376" type="line"/>
    </contour>
    <contour>
      <point x="550" y="60" type="line"/>
      <point x="553" y="-278" type="line"/>
      <point x="669" y="-278" type="line"/>
      <point x="688" y="60" type="line"/>
    </contour>
    <component base="c" xOffset="19"/>
  </outline>
</glyph>
<glyph name="currency" format="1">
  <advance width="1136"/>
  <unicode hex="00A4"/>
  <outline>
    <contour>
      <point x="817" y="1066" type="line"/>
      <point x="747" y="1123"/>
      <point x="663" y="1154"/>
      <point x="569" y="1154" type="curve" smooth="yes"/>
      <point x="476" y="1154"/>
      <point x="389" y="1121"/>
      <point x="320" y="1067" type="curve"/>
      <point x="143" y="1240" type="line"/>
      <point x="54" y="1152" type="line"/>
      <point x="235" y="974" type="line"/>
      <point x="187" y="902"/>
      <point x="161" y="821"/>
      <point x="161" y="733" type="curve" smooth="yes"/>
      <point x="161" y="644"/>
      <point x="188" y="561"/>
      <point x="235" y="492" type="curve"/>
      <point x="55" y="316" type="line"/>
      <point x="143" y="228" type="line"/>
      <point x="319" y="400" type="line"/>
      <point x="389" y="344"/>
      <point x="474" y="314"/>
      <point x="569" y="314" type="curve" smooth="yes"/>
      <point x="663" y="314"/>
      <point x="748" y="346"/>
      <point x="817" y="401" type="curve"/>
      <point x="998" y="227" type="line"/>
      <point x="1081" y="317" type="line"/>
      <point x="904" y="492" type="line"/>
      <point x="952" y="562"/>
      <point x="977" y="643"/>
      <point x="977" y="733" type="curve" smooth="yes"/>
      <point x="977" y="821"/>
      <point x="950" y="903"/>
      <point x="903" y="974" type="curve"/>
      <point x="1082" y="1150" type="line"/>
      <point x="998" y="1240" type="line"/>
    </contour>
    <contour>
      <point x="731" y="1025"/>
      <point x="849" y="892"/>
      <point x="849" y="733" type="curve" smooth="yes"/>
      <point x="849" y="573"/>
      <point x="733" y="443"/>
      <point x="569" y="443" type="curve" smooth="yes"/>
      <point x="408" y="443"/>
      <point x="291" y="573"/>
      <point x="291" y="733" type="curve" smooth="yes"/>
      <point x="291" y="892"/>
      <point x="408" y="1025"/>
      <point x="569" y="1025" type="curve" smooth="yes"/>
    </contour>
  </outline>
</glyph>
<glyph name="section" format="1">
  <advance width="1050"/>
  <unicode hex="00A7"/>
  <outline>
    <contour>
      <point x="250" y="981"/>
      <point x="165" y="888"/>
      <point x="165" y="761" type="curve" smooth="yes"/>
      <point x="165" y="631"/>
      <point x="242" y="544"/>
      <point x="418" y="484" type="curve" smooth="yes"/>
      <point x="524" y="447" type="line" smooth="yes"/>
      <point x="661" y="400"/>
      <point x="687" y="358"/>
      <point x="687" y="300" type="curve" smooth="yes"/>
      <point x="687" y="213"/>
      <point x="628" y="157"/>
      <point x="515" y="157" type="curve" smooth="yes"/>
      <point x="429" y="157"/>
      <point x="310" y="188"/>
      <point x="180" y="261" type="curve"/>
      <point x="180" y="62" type="line"/>
      <point x="282" y="10"/>
      <point x="412" y="-20"/>
      <point x="520" y="-20" type="curve" smooth="yes"/>
      <point x="719" y="-20"/>
      <point x="886" y="76"/>
      <point x="886" y="321" type="curve" smooth="yes"/>
      <point x="886" y="465"/>
      <point x="813" y="564"/>
      <point x="615" y="631" type="curve" smooth="yes"/>
      <point x="526" y="662" type="line" smooth="yes"/>
      <point x="397" y="707"/>
      <point x="368" y="739"/>
      <point x="368" y="805" type="curve" smooth="yes"/>
      <point x="368" y="868"/>
      <point x="417" y="908"/>
      <point x="490" y="919" type="curve"/>
      <point x="392" y="1043" type="line"/>
    </contour>
    <contour>
      <point x="336" y="1513"/>
      <point x="166" y="1418"/>
      <point x="166" y="1207" type="curve" smooth="yes"/>
      <point x="166" y="1052"/>
      <point x="228" y="964"/>
      <point x="418" y="899" type="curve" smooth="yes"/>
      <point x="524" y="862" type="line" smooth="yes"/>
      <point x="661" y="815"/>
      <point x="687" y="773"/>
      <point x="687" y="715" type="curve" smooth="yes"/>
      <point x="687" y="640"/>
      <point x="644" y="589"/>
      <point x="561" y="575" type="curve"/>
      <point x="680" y="452" type="line"/>
      <point x="774" y="502"/>
      <point x="886" y="587"/>
      <point x="886" y="736" type="curve" smooth="yes"/>
      <point x="886" y="880"/>
      <point x="813" y="978"/>
      <point x="615" y="1046" type="curve" smooth="yes"/>
      <point x="526" y="1077" type="line" smooth="yes"/>
      <point x="397" y="1122"/>
      <point x="368" y="1154"/>
      <point x="368" y="1220" type="curve" smooth="yes"/>
      <point x="368" y="1295"/>
      <point x="439" y="1337"/>
      <point x="535" y="1337" type="curve" smooth="yes"/>
      <point x="615" y="1337"/>
      <point x="710" y="1309"/>
      <point x="797" y="1247" type="curve"/>
      <point x="857" y="1424" type="line"/>
      <point x="759" y="1482"/>
      <point x="640" y="1513"/>
      <point x="530" y="1513" type="curve" smooth="yes"/>
    </contour>
  </outline>
</glyph>
<glyph name="uni00B5" format="1">
  <advance width="1172"/>
  <unicode hex="00B5"/>
  <outline>
    <contour>
      <point x="124" y="497" type="line"/>
      <point x="124" y="-307" type="line"/>
      <point x="348" y="-307" type="line"/>
      <point x="348" y="497" type="line"/>
    </contour>
    <component base="u"/>
  </outline>
</glyph>
<glyph name="periodcentered" format="1">
  <advance width="624"/>
  <unicode hex="00B7"/>
  <outline>
    <contour>
      <point x="306" y="558" type="line"/>
      <point x="474" y="558" type="line"/>
      <point x="474" y="725" type="line"/>
      <point x="306" y="725" type="line"/>
    </contour>
    <contour>
      <point x="3" y="634" type="move" name="_mid"/>
    </contour>
  </outline>
</glyph>
<glyph name="uni00B9" format="1">
  <advance width="823"/>
  <unicode hex="00B9"/>
  <outline>
    <contour>
      <point x="163" y="1384" type="curve"/>
      <point x="163" y="1223" type="line"/>
      <point x="180" y="1227"/>
      <point x="293" y="1277"/>
      <point x="330" y="1298" type="curve"/>
      <point x="330" y="764" type="line"/>
      <point x="176" y="764" type="line"/>
      <point x="176" y="615" type="line"/>
      <point x="663" y="615" type="line"/>
      <point x="663" y="764" type="line"/>
      <point x="514" y="764" type="line"/>
      <point x="514" y="1492" type="line"/>
      <point x="370" y="1493" type="line"/>
      <point x="358" y="1481"/>
      <point x="178" y="1387"/>
    </contour>
  </outline>
</glyph>
<glyph name="ordmasculine" format="1">
  <advance width="965"/>
  <unicode hex="00BA"/>
  <outline>
    <contour>
      <point x="124" y="1114" type="curve" smooth="yes"/>
      <point x="124" y="889"/>
      <point x="249" y="715"/>
      <point x="480" y="715" type="curve" smooth="yes"/>
      <point x="699" y="715"/>
      <point x="836" y="891"/>
      <point x="836" y="1114" type="curve" smooth="yes"/>
      <point x="836" y="1345"/>
      <point x="717" y="1517"/>
      <point x="480" y="1517" type="curve" smooth="yes"/>
      <point x="249" y="1517"/>
      <point x="124" y="1342"/>
    </contour>
    <contour>
      <point x="666" y="1111" type="curve" smooth="yes"/>
      <point x="666" y="947"/>
      <point x="606" y="862"/>
      <point x="480" y="862" type="curve" smooth="yes"/>
      <point x="362" y="862"/>
      <point x="301" y="948"/>
      <point x="301" y="1114" type="curve" smooth="yes"/>
      <point x="301" y="1282"/>
      <point x="363" y="1370"/>
      <point x="480" y="1370" type="curve" smooth="yes"/>
      <point x="601" y="1370"/>
      <point x="666" y="1279"/>
    </contour>
  </outline>
</glyph>
<glyph name="guillemotright" format="1">
  <advance width="1022"/>
  <unicode hex="00BB"/>
  <outline>
    <contour>
      <point x="249" y="138" type="line"/>
      <point x="553" y="565" type="line"/>
      <point x="251" y="988" type="line"/>
      <point x="78" y="988" type="line"/>
      <point x="341" y="562" type="line"/>
      <point x="74" y="138" type="line"/>
    </contour>
    <contour>
      <point x="634" y="138" type="line"/>
      <point x="940" y="565" type="line"/>
      <point x="637" y="988" type="line"/>
      <point x="466" y="988" type="line"/>
      <point x="726" y="562" type="line"/>
      <point x="461" y="138" type="line"/>
    </contour>
  </outline>
</glyph>
<glyph name="onehalf" format="1">
  <advance width="1618"/>
  <unicode hex="00BD"/>
  <outline>
    <contour>
      <point x="38" y="597" type="line"/>
      <point x="492" y="597" type="line"/>
      <point x="492" y="741" type="line"/>
      <point x="355" y="741" type="line"/>
      <point x="355" y="1493" type="line"/>
      <point x="220" y="1493" type="line"/>
      <point x="186" y="1467"/>
      <point x="66" y="1403"/>
      <point x="24" y="1383" type="curve"/>
      <point x="24" y="1238" type="line"/>
      <point x="39" y="1243"/>
      <point x="143" y="1292"/>
      <point x="180" y="1313" type="curve"/>
      <point x="180" y="741" type="line"/>
      <point x="38" y="741" type="line"/>
    </contour>
    <contour>
      <point x="1006" y="-20" type="line"/>
      <point x="1547" y="-20" type="line"/>
      <point x="1560" y="118" type="line"/>
      <point x="1235" y="118" type="line"/>
      <point x="1421" y="283"/>
      <point x="1564" y="395"/>
      <point x="1564" y="587" type="curve" smooth="yes"/>
      <point x="1564" y="762"/>
      <point x="1425" y="859"/>
      <point x="1281" y="859" type="curve" smooth="yes"/>
      <point x="1160" y="859"/>
      <point x="1049" y="809"/>
      <point x="991" y="716" type="curve"/>
      <point x="1068" y="609" type="line"/>
      <point x="1118" y="678"/>
      <point x="1197" y="711"/>
      <point x="1270" y="711" type="curve" smooth="yes"/>
      <point x="1336" y="711"/>
      <point x="1401" y="666"/>
      <point x="1401" y="580" type="curve" smooth="yes"/>
      <point x="1401" y="448"/>
      <point x="1079" y="191"/>
      <point x="1006" y="115" type="curve"/>
    </contour>
    <contour>
      <point x="246" y="0" type="line"/>
      <point x="427" y="0" type="line"/>
      <point x="1380" y="1493" type="line"/>
      <point x="1204" y="1493" type="line"/>
    </contour>
  </outline>
</glyph>
<glyph name="threequarters" format="1">
  <advance width="1590"/>
  <unicode hex="00BE"/>
  <outline>
    <contour>
      <point x="68" y="597" type="line"/>
      <point x="522" y="597" type="line"/>
      <point x="522" y="741" type="line"/>
      <point x="385" y="741" type="line"/>
      <point x="385" y="1492" type="line"/>
      <point x="250" y="1492" type="line"/>
      <point x="216" y="1467"/>
      <point x="96" y="1402"/>
      <point x="54" y="1383" type="curve"/>
      <point x="54" y="1238" type="line"/>
      <point x="68" y="1243"/>
      <point x="173" y="1292"/>
      <point x="210" y="1312" type="curve"/>
      <point x="210" y="741" type="line"/>
      <point x="68" y="741" type="line"/>
    </contour>
    <contour>
      <point x="1298" y="0" type="line"/>
      <point x="1450" y="0" type="line"/>
      <point x="1450" y="184" type="line"/>
      <point x="1558" y="184" type="line"/>
      <point x="1563" y="312" type="line"/>
      <point x="1450" y="312" type="line"/>
      <point x="1450" y="867" type="line"/>
      <point x="1288" y="867" type="line"/>
      <point x="914" y="309" type="line"/>
      <point x="914" y="184" type="line"/>
      <point x="1298" y="184" type="line"/>
    </contour>
    <contour>
      <point x="276" y="0" type="line"/>
      <point x="457" y="0" type="line"/>
      <point x="1410" y="1492" type="line"/>
      <point x="1234" y="1492" type="line"/>
    </contour>
    <contour>
      <point x="1081" y="312" type="line"/>
      <point x="1298" y="665" type="line"/>
      <point x="1298" y="312" type="line"/>
    </contour>
  </outline>
</glyph>
<glyph name="AE" format="1">
  <advance width="2186"/>
  <unicode hex="00C6"/>
  <outline>
    <contour>
      <point x="1014" y="1456" type="line"/>
      <point x="0" y="0" type="line"/>
      <point x="239" y="0" type="line"/>
      <point x="520" y="413" type="line"/>
      <point x="1076" y="413" type="line"/>
      <point x="1076" y="0" type="line"/>
      <point x="2040" y="0" type="line"/>
      <point x="2048" y="195" type="line"/>
      <point x="1307" y="195" type="line"/>
      <point x="1307" y="654" type="line"/>
      <point x="1978" y="654" type="line"/>
      <point x="1978" y="845" type="line"/>
      <point x="1307" y="845" type="line"/>
      <point x="1307" y="1266" type="line"/>
      <point x="2018" y="1266" type="line"/>
      <point x="2031" y="1456" type="line"/>
    </contour>
    <contour>
      <point x="1076" y="587" type="line"/>
      <point x="638" y="587" type="line"/>
      <point x="1076" y="1231" type="line"/>
    </contour>
    <contour>
      <point x="1514" y="1456" type="move" name="top"/>
    </contour>
  </outline>
</glyph>
<glyph name="Thorn" format="1">
  <advance width="1249"/>
  <unicode hex="00DE"/>
  <outline>
    <contour>
      <point x="165" y="0" type="line"/>
      <point x="405" y="0" type="line"/>
      <point x="405" y="500" type="line"/>
      <point x="348" y="431" type="line"/>
      <point x="600" y="431" type="line" smooth="yes"/>
      <point x="986" y="431"/>
      <point x="1105" y="582"/>
      <point x="1105" y="828" type="curve" smooth="yes"/>
      <point x="1105" y="1105"/>
      <point x="903" y="1188"/>
      <point x="601" y="1188" type="curve" smooth="yes"/>
      <point x="355" y="1188" type="line"/>
      <point x="405" y="1138" type="line"/>
      <point x="405" y="1456" type="line"/>
      <point x="165" y="1456" type="line"/>
    </contour>
    <contour>
      <point x="405" y="550" type="line"/>
      <point x="405" y="1075" type="line"/>
      <point x="350" y="1016" type="line"/>
      <point x="611" y="1016" type="line" smooth="yes"/>
      <point x="788" y="1016"/>
      <point x="852" y="963"/>
      <point x="852" y="823" type="curve" smooth="yes"/>
      <point x="852" y="676"/>
      <point x="818" y="610"/>
      <point x="593" y="610" type="curve" smooth="yes"/>
      <point x="350" y="610" type="line"/>
    </contour>
  </outline>
</glyph>
<glyph name="oslash" format="1">
  <advance width="1164"/>
  <unicode hex="00F8"/>
  <outline>
    <contour>
      <point x="197" y="-107" type="line"/>
      <point x="268" y="-152" type="line"/>
      <point x="1002" y="1223" type="line"/>
      <point x="925" y="1268" type="line"/>
    </contour>
    <component base="o"/>
  </outline>
</glyph>
<glyph name="Hbar" format="1">
  <advance width="1476"/>
  <unicode hex="0126"/>
  <outline>
    <contour>
      <point x="63" y="1290" type="line"/>
      <point x="63" y="1162" type="line"/>
      <point x="1403" y="1162" type="line"/>
      <point x="1403" y="1290" type="line"/>
    </contour>
    <component base="H"/>
  </outline>
</glyph>
<glyph name="dotlessi" format="1">
  <advance width="570"/>
  <unicode hex="0131"/>
  <outline>
    <contour>
      <point x="180" y="1082" type="line"/>
      <point x="180" y="0" type="line"/>
      <point x="400" y="0" type="line"/>
      <point x="400" y="1082" type="line"/>
    </contour>
    <contour>
      <point x="297" y="1082" type="move" name="top"/>
    </contour>
    <contour>
      <point x="331" y="0" type="move" name="ogonek"/>
    </contour>
  </outline>
</glyph>
<glyph name="kgreenlandic" format="1">
  <advance width="1136"/>
  <unicode hex="0138"/>
  <outline>
    <contour>
      <point x="789" y="1081" type="line"/>
      <point x="305" y="533" type="line"/>
      <point x="346" y="533" type="line"/>
      <point x="353" y="800" type="line"/>
      <point x="353" y="1081" type="line"/>
      <point x="131" y="1081" type="line"/>
      <point x="131" y="0" type="line"/>
      <point x="353" y="0" type="line"/>
      <point x="353" y="438" type="line"/>
      <point x="299" y="323" type="line"/>
      <point x="495" y="511" type="line"/>
      <point x="423" y="511" type="line"/>
      <point x="823" y="0" type="line"/>
      <point x="1086" y="0" type="line"/>
      <point x="581" y="637" type="line"/>
      <point x="571" y="532" type="line"/>
      <point x="1064" y="1081" type="line"/>
    </contour>
  </outline>
</glyph>
<glyph name="Eng" format="1">
  <advance width="1505"/>
  <unicode hex="014A"/>
  <outline>
    <contour>
      <point x="726" y="1519"/>
      <point x="546" y="1461"/>
      <point x="404" y="1307" type="curve"/>
      <point x="383" y="1495" type="line"/>
      <point x="171" y="1495" type="line"/>
      <point x="172" y="7" type="line"/>
      <point x="408" y="7" type="line"/>
      <point x="408" y="1082" type="line"/>
      <point x="497" y="1228"/>
      <point x="663" y="1323"/>
      <point x="830" y="1323" type="curve" smooth="yes"/>
      <point x="1017" y="1323"/>
      <point x="1085" y="1236"/>
      <point x="1085" y="985" type="curve" smooth="yes"/>
      <point x="1085" y="170" type="line" smooth="yes"/>
      <point x="1085" y="-58"/>
      <point x="1060" y="-125"/>
      <point x="835" y="-125" type="curve" smooth="yes"/>
      <point x="822" y="-125"/>
      <point x="781" y="-124"/>
      <point x="690" y="-118" type="curve"/>
      <point x="711" y="-316" type="line"/>
      <point x="793" y="-324"/>
      <point x="840" y="-325"/>
      <point x="857" y="-325" type="curve" smooth="yes"/>
      <point x="1219" y="-325"/>
      <point x="1322" y="-146"/>
      <point x="1322" y="169" type="curve" smooth="yes"/>
      <point x="1322" y="993" type="line" smooth="yes"/>
      <point x="1322" y="1327"/>
      <point x="1175" y="1519"/>
      <point x="888" y="1519" type="curve" smooth="yes"/>
    </contour>
  </outline>
</glyph>
<glyph name="eng" format="1">
  <advance width="1164"/>
  <unicode hex="014B"/>
  <outline>
    <contour>
      <point x="822" y="292" type="line"/>
      <point x="822" y="-4" type="line" smooth="yes"/>
      <point x="822" y="-155"/>
      <point x="782" y="-181"/>
      <point x="596" y="-181" type="curve"/>
      <point x="616" y="-367" type="line"/>
      <point x="975" y="-367"/>
      <point x="1046" y="-274"/>
      <point x="1046" y="-2" type="curve" smooth="yes"/>
      <point x="1046" y="292" type="line"/>
    </contour>
    <component base="n"/>
  </outline>
</glyph>
<glyph name="OE" format="1">
  <advance width="2297"/>
  <unicode hex="0152"/>
  <outline>
    <contour>
      <point x="108" y="725" type="curve" smooth="yes"/>
      <point x="108" y="258"/>
      <point x="336" y="-18"/>
      <point x="772" y="-18" type="curve" smooth="yes"/>
      <point x="955.238" y="-18"/>
      <point x="1086.96" y="31.5561"/>
      <point x="1178" y="123.743" type="curve"/>
      <point x="1178" y="-2.56958e-06" type="line"/>
      <point x="2151" y="-2.56958e-06" type="line"/>
      <point x="2159" y="195" type="line"/>
      <point x="1418" y="195" type="line"/>
      <point x="1418" y="654" type="line"/>
      <point x="2089" y="654" type="line"/>
      <point x="2089" y="845" type="line"/>
      <point x="1418" y="845" type="line"/>
      <point x="1418" y="1266" type="line"/>
      <point x="2129" y="1266" type="line"/>
      <point x="2142" y="1456" type="line"/>
      <point x="1178" y="1456" type="line"/>
      <point x="1178" y="1333.22" type="line"/>
      <point x="1086.38" y="1428.82"/>
      <point x="954.236" y="1480"/>
      <point x="772" y="1480" type="curve" smooth="yes"/>
      <point x="341" y="1480"/>
      <point x="108" y="1201"/>
    </contour>
    <contour>
      <point x="1177" y="724" type="curve" smooth="yes"/>
      <point x="1177" y="398"/>
      <point x="1063" y="186"/>
      <point x="771" y="186" type="curve" smooth="yes"/>
      <point x="479" y="186"/>
      <point x="362" y="398"/>
      <point x="362" y="724" type="curve" smooth="yes"/>
      <point x="362" y="1061"/>
      <point x="485" y="1276"/>
      <point x="772" y="1276" type="curve" smooth="yes"/>
      <point x="1060" y="1276"/>
      <point x="1177" y="1060"/>
    </contour>
    <contour>
      <point x="1658" y="0" type="move" name="bot"/>
    </contour>
    <contour>
      <point x="1901" y="0" type="move" name="ogonek"/>
    </contour>
    <contour>
      <point x="1658" y="1456" type="move" name="top"/>
    </contour>
  </outline>
</glyph>
<glyph name="oe" format="1">
  <advance width="1878"/>
  <unicode hex="0153"/>
  <outline>
    <contour>
      <point x="1200.09" y="1103.21"/>
      <point x="1043" y="1007"/>
      <point x="971" y="878" type="curve"/>
      <point x="906" y="1005"/>
      <point x="753.259" y="1101"/>
      <point x="582" y="1101" type="curve" smooth="yes"/>
      <point x="271" y="1101"/>
      <point x="86" y="882"/>
      <point x="86" y="543" type="curve" smooth="yes"/>
      <point x="86" y="205"/>
      <point x="272" y="-18.0001"/>
      <point x="582" y="-18.0001" type="curve" smooth="yes"/>
      <point x="751.586" y="-18.0001"/>
      <point x="904" y="79"/>
      <point x="969" y="205" type="curve"/>
      <point x="1048" y="71"/>
      <point x="1222.01" y="-22.5859"/>
      <point x="1402" y="-18.0001" type="curve" smooth="yes"/>
      <point x="1561" y="-14.0001"/>
      <point x="1689" y="36.9999"/>
      <point x="1760" y="97.9999" type="curve"/>
      <point x="1702" y="246" type="line"/>
      <point x="1689" y="246" type="line"/>
      <point x="1629" y="200"/>
      <point x="1529" y="157"/>
      <point x="1412" y="156" type="curve" smooth="yes"/>
      <point x="1258.26" y="155.057"/>
      <point x="1098.3" y="228.84"/>
      <point x="1080.61" y="473" type="curve"/>
      <point x="1772" y="473" type="line"/>
      <point x="1772" y="473"/>
      <point x="1780" y="527"/>
      <point x="1780" y="586" type="curve" smooth="yes"/>
      <point x="1780" y="897"/>
      <point x="1631" y="1097"/>
      <point x="1355" y="1101" type="curve" smooth="yes"/>
    </contour>
    <contour>
      <point x="768" y="927"/>
      <point x="852" y="784"/>
      <point x="852" y="543" type="curve" smooth="yes"/>
      <point x="852" y="302"/>
      <point x="768" y="156"/>
      <point x="582" y="156" type="curve" smooth="yes"/>
      <point x="396" y="156"/>
      <point x="312" y="302"/>
      <point x="312" y="543" type="curve" smooth="yes"/>
      <point x="312" y="784"/>
      <point x="396" y="927"/>
      <point x="582" y="927" type="curve" smooth="yes"/>
    </contour>
    <contour>
      <point x="1499.84" y="933"/>
      <point x="1576.35" y="838.29"/>
      <point x="1584.31" y="621" type="curve"/>
      <point x="1084.4" y="621" type="line"/>
      <point x="1098.65" y="828.162"/>
      <point x="1219.5" y="933"/>
      <point x="1359" y="933" type="curve" smooth="yes"/>
    </contour>
    <contour>
      <point x="1322.5" y="0" type="move" name="bot"/>
    </contour>
    <contour>
      <point x="1322.5" y="1082" type="move" name="top"/>
    </contour>
    <contour>
      <point x="1449" y="0" type="move" name="ogonek"/>
    </contour>
  </outline>
</glyph>
<glyph name="florin" format="1">
  <advance width="1114"/>
  <unicode hex="0192"/>
  <outline>
    <contour>
      <point x="671" y="1636"/>
      <point x="563" y="1476"/>
      <point x="521" y="1258" type="curve"/>
      <point x="480" y="1051" type="line"/>
      <point x="271" y="1051" type="line"/>
      <point x="255" y="973" type="line"/>
      <point x="468" y="973" type="line"/>
      <point x="298" y="112" type="line"/>
      <point x="245" y="-156"/>
      <point x="235" y="-252"/>
      <point x="-43" y="-199" type="curve"/>
      <point x="-68" y="-301" type="line"/>
      <point x="227" y="-403"/>
      <point x="412" y="-279"/>
      <point x="490" y="117" type="curve"/>
      <point x="660" y="973" type="line"/>
      <point x="951" y="973" type="line"/>
      <point x="967" y="1051" type="line"/>
      <point x="677" y="1051" type="line"/>
      <point x="722" y="1292" type="line"/>
      <point x="746" y="1419"/>
      <point x="810" y="1499"/>
      <point x="904" y="1499" type="curve"/>
      <point x="1028" y="1499"/>
      <point x="1055" y="1394"/>
      <point x="1058" y="1305" type="curve"/>
      <point x="1188" y="1305" type="line"/>
      <point x="1183" y="1526"/>
      <point x="1063" y="1636"/>
      <point x="895" y="1636" type="curve"/>
    </contour>
  </outline>
</glyph>
<glyph name="caron" format="1">
  <advance width="965"/>
  <unicode hex="02C7"/>
  <outline>
    <contour>
      <point x="378" y="1218" type="line"/>
      <point x="575" y="1218" type="line"/>
      <point x="807" y="1591" type="line"/>
      <point x="629" y="1591" type="line"/>
      <point x="468" y="1365" type="line"/>
      <point x="325" y="1591" type="line"/>
      <point x="150" y="1591" type="line"/>
    </contour>
    <contour>
      <point x="482.5" y="1082" type="move" name="_top"/>
    </contour>
  </outline>
</glyph>
<glyph name="uni02C9" format="1">
  <advance width="600"/>
  <unicode hex="02C9"/>
  <outline>
    <contour>
      <point x="-31" y="1310" type="line"/>
      <point x="622" y="1310" type="line"/>
      <point x="622" y="1463" type="line"/>
      <point x="-31" y="1463" type="line"/>
    </contour>
    <contour>
      <point x="296" y="1082" type="move" name="_top"/>
    </contour>
  </outline>
</glyph>
<glyph name="ring" format="1">
  <advance width="795"/>
  <unicode hex="02DA"/>
  <outline>
    <contour>
      <point x="396" y="1353" type="curve" smooth="yes"/>
      <point x="336" y="1353"/>
      <point x="303" y="1400"/>
      <point x="303" y="1457" type="curve" smooth="yes"/>
      <point x="303" y="1511"/>
      <point x="339" y="1561"/>
      <point x="396" y="1561" type="curve" smooth="yes"/>
      <point x="454" y="1561"/>
      <point x="491" y="1511"/>
      <point x="491" y="1457" type="curve" smooth="yes"/>
      <point x="491" y="1401"/>
      <point x="454" y="1353"/>
    </contour>
    <contour>
      <point x="396" y="1256" type="curve" smooth="yes"/>
      <point x="521" y="1256"/>
      <point x="603" y="1350"/>
      <point x="603" y="1458" type="curve" smooth="yes"/>
      <point x="603" y="1566"/>
      <point x="523" y="1659"/>
      <point x="396" y="1659" type="curve" smooth="yes"/>
      <point x="270" y="1659"/>
      <point x="190" y="1567"/>
      <point x="190" y="1458" type="curve" smooth="yes"/>
      <point x="190" y="1350"/>
      <point x="271" y="1256"/>
    </contour>
    <contour>
      <point x="397.5" y="1082" type="move" name="_top"/>
    </contour>
  </outline>
</glyph>
<glyph name="dblgravecomb" format="1">
  <advance width="852"/>
  <unicode hex="030F"/>
  <outline>
    <contour>
      <point x="187" y="1226" type="line"/>
      <point x="341" y="1226" type="line"/>
      <point x="117" y="1637" type="line"/>
      <point x="-115" y="1637" type="line"/>
    </contour>
    <contour>
      <point x="479" y="1226" type="line"/>
      <point x="632" y="1226" type="line"/>
      <point x="435" y="1637" type="line"/>
      <point x="218" y="1637" type="line"/>
    </contour>
    <contour>
      <point x="426" y="1082" type="move" name="_top"/>
    </contour>
  </outline>
</glyph>
<glyph name="breveinvertedcomb" format="1">
  <advance width="880"/>
  <unicode hex="0311"/>
  <outline>
    <contour>
      <point x="252" y="1241" type="curve"/>
      <point x="399" y="1241" type="line"/>
      <point x="399" y="1321"/>
      <point x="453" y="1359"/>
      <point x="517" y="1359" type="curve" smooth="yes"/>
      <point x="581" y="1359"/>
      <point x="637" y="1322"/>
      <point x="637" y="1241" type="curve"/>
      <point x="784" y="1241" type="line"/>
      <point x="784" y="1411"/>
      <point x="649" y="1486"/>
      <point x="518" y="1486" type="curve" smooth="yes"/>
      <point x="386" y="1486"/>
      <point x="252" y="1410"/>
    </contour>
    <contour>
      <point x="523" y="1082" type="move" name="_top"/>
    </contour>
  </outline>
</glyph>
<glyph name="commaturnedabovecomb" format="1">
  <advance width="600"/>
  <unicode hex="0312"/>
  <outline>
    <contour>
      <point x="178" y="1248" type="line"/>
      <point x="396" y="1248" type="line"/>
      <point x="396" y="1281"/>
      <point x="468" y="1859"/>
      <point x="468" y="1859" type="curve"/>
      <point x="317" y="1859" type="line"/>
      <point x="317" y="1859"/>
      <point x="183" y="1312"/>
      <point x="183" y="1299" type="curve"/>
    </contour>
    <contour>
      <point x="301" y="1082" type="move" name="_top"/>
    </contour>
  </outline>
</glyph>
<glyph name="pi" format="1">
  <advance width="1466"/>
  <unicode hex="03C0"/>
  <outline>
    <contour>
      <point x="1146" y="-13" type="curve" smooth="yes"/>
      <point x="1224" y="-13"/>
      <point x="1290" y="11"/>
      <point x="1324" y="44" type="curve"/>
      <point x="1324" y="173" type="line"/>
      <point x="1296" y="163"/>
      <point x="1257" y="152"/>
      <point x="1216" y="152" type="curve" smooth="yes"/>
      <point x="1152" y="152"/>
      <point x="1103" y="190"/>
      <point x="1103" y="302" type="curve" smooth="yes"/>
      <point x="1103" y="411"/>
      <point x="1110" y="660"/>
      <point x="1127" y="859" type="curve"/>
      <point x="1365" y="859" type="line"/>
      <point x="1365" y="1066" type="line"/>
      <point x="470" y="1066" type="line" smooth="yes"/>
      <point x="231" y="1066"/>
      <point x="157" y="945"/>
      <point x="157" y="727" type="curve"/>
      <point x="253" y="727" type="line"/>
      <point x="265" y="804"/>
      <point x="305" y="859"/>
      <point x="385" y="859" type="curve" smooth="yes"/>
      <point x="482" y="859" type="line"/>
      <point x="418" y="391" type="line" smooth="yes"/>
      <point x="388" y="173"/>
      <point x="257" y="112"/>
      <point x="169" y="112" type="curve"/>
      <point x="169" y="4" type="line"/>
      <point x="517" y="4"/>
      <point x="587" y="106"/>
      <point x="598" y="326" type="curve" smooth="yes"/>
      <point x="624" y="859" type="line"/>
      <point x="974" y="859" type="line"/>
      <point x="938" y="649"/>
      <point x="904" y="375"/>
      <point x="904" y="234" type="curve" smooth="yes"/>
      <point x="904" y="53"/>
      <point x="995" y="-13"/>
    </contour>
  </outline>
</glyph>
<glyph name="dagger" format="1">
  <advance width="1107"/>
  <unicode hex="2020"/>
  <outline>
    <contour>
      <point x="438" y="1493" type="line"/>
      <point x="438" y="1134" type="line"/>
      <point x="171" y="1134" type="line"/>
      <point x="171" y="977" type="line"/>
      <point x="438" y="977" type="line"/>
      <point x="438" y="0" type="line"/>
      <point x="658" y="0" type="line"/>
      <point x="658" y="977" type="line"/>
      <point x="941" y="977" type="line"/>
      <point x="941" y="1134" type="line"/>
      <point x="661" y="1134" type="line"/>
      <point x="661" y="1493" type="line"/>
    </contour>
  </outline>
</glyph>
<glyph name="daggerdbl" format="1">
  <advance width="1079"/>
  <unicode hex="2021"/>
  <outline>
    <contour>
      <point x="449" y="1491" type="line"/>
      <point x="449" y="1124" type="line"/>
      <point x="179" y="1124" type="line"/>
      <point x="179" y="971" type="line"/>
      <point x="449" y="971" type="line"/>
      <point x="449" y="550" type="line"/>
      <point x="178" y="550" type="line"/>
      <point x="178" y="407" type="line"/>
      <point x="449" y="407" type="line"/>
      <point x="449" y="21" type="line"/>
      <point x="615" y="21" type="line"/>
      <point x="615" y="407" type="line"/>
      <point x="881" y="407" type="line"/>
      <point x="881" y="550" type="line"/>
      <point x="615" y="550" type="line"/>
      <point x="614" y="971" type="line"/>
      <point x="883" y="971" type="line"/>
      <point x="883" y="1124" type="line"/>
      <point x="612" y="1124" type="line"/>
      <point x="612" y="1491" type="line"/>
    </contour>
  </outline>
</glyph>
<glyph name="perthousand" format="1">
  <advance width="2755"/>
  <unicode hex="2030"/>
  <outline>
    <contour>
      <point x="2278" y="127" type="curve" smooth="yes"/>
      <point x="2143" y="127"/>
      <point x="2087" y="237"/>
      <point x="2087" y="382" type="curve" smooth="yes"/>
      <point x="2087" y="524"/>
      <point x="2143" y="633"/>
      <point x="2278" y="633" type="curve" smooth="yes"/>
      <point x="2411" y="633"/>
      <point x="2466" y="529"/>
      <point x="2466" y="382" type="curve" smooth="yes"/>
      <point x="2466" y="240"/>
      <point x="2412" y="127"/>
    </contour>
    <contour>
      <point x="2275" y="-20" type="curve" smooth="yes"/>
      <point x="2512" y="-20"/>
      <point x="2639" y="155"/>
      <point x="2639" y="380" type="curve" smooth="yes"/>
      <point x="2639" y="608"/>
      <point x="2515" y="776"/>
      <point x="2275" y="776" type="curve" smooth="yes"/>
      <point x="2040" y="776"/>
      <point x="1913" y="604"/>
      <point x="1913" y="380" type="curve" smooth="yes"/>
      <point x="1913" y="155"/>
      <point x="2036" y="-20"/>
    </contour>
    <component base="percent" xOffset="30"/>
  </outline>
</glyph>
<glyph name="foursuperior" format="1">
  <advance width="852"/>
  <unicode hex="2074"/>
  <outline>
    <contour>
      <point x="474" y="625" type="line"/>
      <point x="610" y="625" type="line"/>
      <point x="611" y="812" type="line"/>
      <point x="719" y="812" type="line"/>
      <point x="708" y="953" type="line"/>
      <point x="612" y="953" type="line"/>
      <point x="612" y="1472" type="line"/>
      <point x="471" y="1472" type="line"/>
      <point x="144" y="928" type="line"/>
      <point x="144" y="812" type="line"/>
      <point x="474" y="812" type="line"/>
    </contour>
    <contour>
      <point x="311" y="953" type="line"/>
      <point x="473" y="1231" type="line"/>
      <point x="473" y="953" type="line"/>
    </contour>
  </outline>
</glyph>
<glyph name="Euro" format="1">
  <advance width="1391"/>
  <unicode hex="20AC"/>
  <outline>
    <contour>
      <point x="-64" y="942" type="line"/>
      <point x="-67" y="810" type="line"/>
      <point x="105" y="810" type="line"/>
      <point x="105" y="660" type="line"/>
      <point x="-67" y="660" type="line"/>
      <point x="-70" y="527" type="line"/>
      <point x="806" y="527" type="line"/>
      <point x="809" y="660" type="line"/>
      <point x="238" y="660" type="line"/>
      <point x="238" y="810" type="line"/>
      <point x="809" y="810" type="line"/>
      <point x="813" y="942" type="line"/>
    </contour>
    <component base="C" xOffset="-57.282"/>
  </outline>
</glyph>
<glyph name="partialdiff" format="1">
  <advance width="1278"/>
  <unicode hex="2202"/>
  <outline>
    <contour>
      <point x="530" y="1677"/>
      <point x="416" y="1635"/>
      <point x="333" y="1577" type="curve"/>
      <point x="346" y="1427" type="line"/>
      <point x="426" y="1485"/>
      <point x="526" y="1530"/>
      <point x="628" y="1530" type="curve" smooth="yes"/>
      <point x="843" y="1530"/>
      <point x="958" y="1325"/>
      <point x="958" y="995" type="curve" smooth="yes"/>
      <point x="958" y="966"/>
      <point x="957" y="934"/>
      <point x="957" y="915" type="curve"/>
      <point x="890" y="1030"/>
      <point x="785" y="1094"/>
      <point x="648" y="1094" type="curve" smooth="yes"/>
      <point x="361" y="1094"/>
      <point x="159" y="819"/>
      <point x="159" y="459" type="curve" smooth="yes"/>
      <point x="159" y="186"/>
      <point x="279" y="-28"/>
      <point x="553" y="-28" type="curve" smooth="yes"/>
      <point x="945" y="-28"/>
      <point x="1109" y="459"/>
      <point x="1109" y="931" type="curve" smooth="yes"/>
      <point x="1109" y="1443"/>
      <point x="948" y="1677"/>
      <point x="652" y="1677" type="curve" smooth="yes"/>
    </contour>
    <contour>
      <point x="817" y="950"/>
      <point x="909" y="840"/>
      <point x="944" y="717" type="curve"/>
      <point x="912" y="390"/>
      <point x="769" y="121"/>
      <point x="554" y="121" type="curve" smooth="yes"/>
      <point x="402" y="121"/>
      <point x="305" y="255"/>
      <point x="305" y="458" type="curve" smooth="yes"/>
      <point x="305" y="724"/>
      <point x="468" y="950"/>
      <point x="674" y="950" type="curve" smooth="yes"/>
    </contour>
  </outline>
</glyph>
<glyph name="uni2206" format="1">
  <advance width="1306"/>
  <unicode hex="2206"/>
  <outline>
    <contour>
      <point x="561" y="1564" type="line"/>
      <point x="69" y="87" type="line"/>
      <point x="69" y="0" type="line"/>
      <point x="1241" y="0" type="line"/>
      <point x="1241" y="87" type="line"/>
      <point x="750" y="1564" type="line"/>
    </contour>
    <contour>
      <point x="685" y="1212" type="line"/>
      <point x="1041" y="176" type="line"/>
      <point x="269" y="176" type="line"/>
      <point x="618" y="1212" type="line"/>
      <point x="651" y="1333" type="line"/>
    </contour>
  </outline>
</glyph>
<glyph name="radical" format="1">
  <advance width="1164"/>
  <unicode hex="221A"/>
  <outline>
    <contour>
      <point x="1018" y="1746" type="line"/>
      <point x="882" y="1179"/>
      <point x="749" y="616"/>
      <point x="614" y="49" type="curve"/>
      <point x="555" y="237" type="line"/>
      <point x="316" y="906" type="line"/>
      <point x="57" y="849" type="line"/>
      <point x="72" y="726" type="line"/>
      <point x="224" y="757" type="line"/>
      <point x="555" y="-165" type="line"/>
      <point x="693" y="-165" type="line"/>
      <point x="1130" y="1746" type="line"/>
    </contour>
  </outline>
</glyph>
<glyph name="infinity" format="1">
  <advance width="1718"/>
  <unicode hex="221E"/>
  <outline>
    <contour>
      <point x="862" y="751" type="curve"/>
      <point x="740" y="916"/>
      <point x="614" y="1027"/>
      <point x="444" y="1027" type="curve" smooth="yes"/>
      <point x="248" y="1027"/>
      <point x="92" y="866"/>
      <point x="92" y="664" type="curve" smooth="yes"/>
      <point x="92" y="442"/>
      <point x="223" y="252"/>
      <point x="448" y="252" type="curve" smooth="yes"/>
      <point x="614" y="252"/>
      <point x="743" y="366"/>
      <point x="862" y="527" type="curve"/>
      <point x="998" y="342"/>
      <point x="1122" y="252"/>
      <point x="1273" y="252" type="curve" smooth="yes"/>
      <point x="1471" y="252"/>
      <point x="1626" y="414"/>
      <point x="1626" y="646" type="curve" smooth="yes"/>
      <point x="1626" y="867"/>
      <point x="1500" y="1027"/>
      <point x="1275" y="1027" type="curve" smooth="yes"/>
      <point x="1102" y="1027"/>
      <point x="976" y="911"/>
    </contour>
    <contour>
      <point x="748" y="641" type="curve"/>
      <point x="662" y="517"/>
      <point x="561" y="421"/>
      <point x="450" y="421" type="curve"/>
      <point x="324" y="421"/>
      <point x="239" y="532"/>
      <point x="239" y="642" type="curve"/>
      <point x="239" y="761"/>
      <point x="317" y="861"/>
      <point x="443" y="861" type="curve"/>
      <point x="565" y="861"/>
      <point x="663" y="771"/>
    </contour>
    <contour>
      <point x="1470" y="669" type="curve"/>
      <point x="1470" y="525"/>
      <point x="1408" y="421"/>
      <point x="1275" y="421" type="curve"/>
      <point x="1168" y="421"/>
      <point x="1087" y="495"/>
      <point x="978" y="643" type="curve"/>
      <point x="1060" y="761"/>
      <point x="1156" y="861"/>
      <point x="1271" y="861" type="curve"/>
      <point x="1388" y="861"/>
      <point x="1470" y="772"/>
    </contour>
  </outline>
</glyph>
<glyph name="integral" format="1">
  <advance width="862"/>
  <unicode hex="222B"/>
  <outline>
    <contour>
      <point x="367" y="1171" type="curve"/>
      <point x="367" y="-42" type="line"/>
      <point x="367" y="-215"/>
      <point x="316" y="-272"/>
      <point x="217" y="-272" type="curve" smooth="yes"/>
      <point x="189" y="-272"/>
      <point x="156" y="-267"/>
      <point x="120" y="-259" type="curve"/>
      <point x="120" y="-439" type="line"/>
      <point x="176" y="-453"/>
      <point x="225" y="-459"/>
      <point x="267" y="-459" type="curve"/>
      <point x="474" y="-459"/>
      <point x="577" y="-300"/>
      <point x="577" y="-34" type="curve"/>
      <point x="577" y="1180" type="line"/>
      <point x="577" y="1340"/>
      <point x="604" y="1420"/>
      <point x="718" y="1420" type="curve" smooth="yes"/>
      <point x="742" y="1420"/>
      <point x="770" y="1416"/>
      <point x="802" y="1409" type="curve"/>
      <point x="802" y="1559" type="line"/>
      <point x="743" y="1573"/>
      <point x="693" y="1581"/>
      <point x="649" y="1581" type="curve"/>
      <point x="452" y="1581"/>
      <point x="367" y="1432"/>
    </contour>
  </outline>
</glyph>
<glyph name="greaterequal" format="1">
  <advance width="1192"/>
  <unicode hex="2265"/>
  <outline>
    <contour>
      <point x="152" y="1123" type="line"/>
      <point x="849" y="756" type="line"/>
      <point x="150" y="410" type="line"/>
      <point x="150" y="225" type="line"/>
      <point x="1055" y="703" type="line"/>
      <point x="1055" y="809" type="line"/>
      <point x="152" y="1306" type="line"/>
    </contour>
    <contour>
      <point x="133" y="158" type="line"/>
      <point x="133" y="5" type="line"/>
      <point x="1066" y="5" type="line"/>
      <point x="1066" y="158" type="line"/>
    </contour>
  </outline>
</glyph>
<glyph name="caron.alt" format="1">
  <advance width="600"/>
  <outline>
    <contour>
      <point x="214" y="1013" type="line"/>
      <point x="347" y="1013" type="line"/>
      <point x="443" y="1513" type="line"/>
      <point x="259" y="1513" type="line"/>
    </contour>
    <contour>
      <point x="-5" y="1082" type="move" name="_caron.alt"/>
    </contour>
  </outline>
</glyph>
<glyph name="dotlessj" format="1">
  <advance width="653"/>
  <outline>
    <contour>
      <point x="229" y="1082" type="line"/>
      <point x="229" y="11" type="line" smooth="yes"/>
      <point x="229" y="-158"/>
      <point x="210" y="-190"/>
      <point x="53" y="-248" type="curve" smooth="yes"/>
      <point x="-25" y="-277" type="line"/>
      <point x="42" y="-441" type="line"/>
      <point x="105" y="-419" type="line" smooth="yes"/>
      <point x="385" y="-321"/>
      <point x="449" y="-290"/>
      <point x="449" y="17" type="curve" smooth="yes"/>
      <point x="449" y="1082" type="line"/>
    </contour>
    <contour>
      <point x="341" y="1082" type="move" name="top"/>
    </contour>
  </outline>
</glyph>
<glyph name="middot" format="1">
  <advance width="624"/>
  <outline>
    <component base="period" xOffset="-26" yOffset="510"/>
    <contour>
      <point x="310" y="650" type="move" name="_mid"/>
    </contour>
  </outline>
</glyph>
